<mxfile host="app.diagrams.net" agent="Mozilla/5.0 (X11; Linux x86_64; rv:129.0) Gecko/20100101 Firefox/129.0" version="24.7.12">
  <diagram name="Page-1" id="UmnG6x5tp6qrb22gdRWd">
    <mxGraphModel dx="1418" dy="764" grid="0" gridSize="10" guides="1" tooltips="1" connect="1" arrows="1" fold="1" page="1" pageScale="1" pageWidth="850" pageHeight="1100" math="0" shadow="0">
      <root>
        <mxCell id="0" />
        <mxCell id="1" parent="0" />
        <mxCell id="DtNA1OOpv918O6FHiLsb-5" value="&lt;font style=&quot;font-size: 17px;&quot;&gt;VirusHunter&lt;/font&gt;" style="swimlane;whiteSpace=wrap;html=1;startSize=47;rounded=1;labelBackgroundColor=none;fillColor=#dae8fc;strokeColor=#6c8ebf;" parent="1" vertex="1">
          <mxGeometry x="340" y="174" width="510" height="573" as="geometry" />
        </mxCell>
        <mxCell id="JjrdLrowcXQNLenx9GRh-69" style="edgeStyle=elbowEdgeStyle;rounded=1;orthogonalLoop=1;jettySize=auto;html=1;startArrow=none;endArrow=none;exitX=1;exitY=0.5;exitDx=0;exitDy=0;entryX=0;entryY=0.5;entryDx=0;entryDy=0;labelBackgroundColor=none;fontColor=default;strokeWidth=3;" edge="1" parent="DtNA1OOpv918O6FHiLsb-5" target="JjrdLrowcXQNLenx9GRh-68">
          <mxGeometry relative="1" as="geometry">
            <mxPoint x="178" y="180" as="sourcePoint" />
          </mxGeometry>
        </mxCell>
        <mxCell id="JjrdLrowcXQNLenx9GRh-63" value="&lt;div&gt;&lt;b&gt;RNA&amp;nbsp;&lt;/b&gt;&lt;/div&gt;&lt;div&gt;&lt;b&gt;viruses profiles&lt;/b&gt;&lt;/div&gt;" style="labelPosition=center;verticalLabelPosition=middle;align=center;html=1;shape=mxgraph.basic.shaded_button;dx=10;strokeColor=#d6b656;whiteSpace=wrap;rounded=1;labelBackgroundColor=none;fillColor=#fff2cc;" vertex="1" parent="DtNA1OOpv918O6FHiLsb-5">
          <mxGeometry x="156" y="53" width="111" height="63" as="geometry" />
        </mxCell>
        <mxCell id="JjrdLrowcXQNLenx9GRh-65" value="&lt;div&gt;&lt;b&gt;Large DNA&amp;nbsp;&lt;/b&gt;&lt;/div&gt;&lt;div&gt;&lt;b&gt;viruses profiles&lt;/b&gt;&lt;/div&gt;" style="labelPosition=center;verticalLabelPosition=middle;align=center;html=1;shape=mxgraph.basic.shaded_button;dx=10;strokeColor=#d6b656;whiteSpace=wrap;rounded=1;labelBackgroundColor=none;fillColor=#fff2cc;" vertex="1" parent="DtNA1OOpv918O6FHiLsb-5">
          <mxGeometry x="270" y="55" width="108" height="62" as="geometry" />
        </mxCell>
        <mxCell id="JjrdLrowcXQNLenx9GRh-66" value="&lt;div&gt;&lt;b&gt;Small DNA&amp;nbsp;&lt;/b&gt;&lt;/div&gt;&lt;div&gt;&lt;b&gt;viruses profiles&lt;/b&gt;&lt;/div&gt;" style="labelPosition=center;verticalLabelPosition=middle;align=center;html=1;shape=mxgraph.basic.shaded_button;dx=10;strokeColor=#d6b656;whiteSpace=wrap;rounded=1;labelBackgroundColor=none;fillColor=#fff2cc;" vertex="1" parent="DtNA1OOpv918O6FHiLsb-5">
          <mxGeometry x="387" y="55" width="117" height="61" as="geometry" />
        </mxCell>
        <mxCell id="JjrdLrowcXQNLenx9GRh-67" value="" style="shape=curlyBracket;whiteSpace=wrap;html=1;rounded=1;flipH=1;labelPosition=right;verticalLabelPosition=middle;align=left;verticalAlign=middle;rotation=90;labelBackgroundColor=none;strokeWidth=3;" vertex="1" parent="DtNA1OOpv918O6FHiLsb-5">
          <mxGeometry x="312" y="3" width="23" height="264" as="geometry" />
        </mxCell>
        <mxCell id="JjrdLrowcXQNLenx9GRh-76" style="edgeStyle=orthogonalEdgeStyle;rounded=1;orthogonalLoop=1;jettySize=auto;html=1;exitX=0.5;exitY=1;exitDx=0;exitDy=0;labelBackgroundColor=none;fontColor=default;strokeWidth=3;" edge="1" parent="DtNA1OOpv918O6FHiLsb-5" source="JjrdLrowcXQNLenx9GRh-68" target="JjrdLrowcXQNLenx9GRh-70">
          <mxGeometry relative="1" as="geometry" />
        </mxCell>
        <mxCell id="JjrdLrowcXQNLenx9GRh-68" value="&lt;div style=&quot;font-size: 16px;&quot;&gt;&lt;font style=&quot;font-size: 20px;&quot;&gt;hmmsearch&lt;/font&gt;&lt;/div&gt;&lt;div&gt;&lt;font style=&quot;font-weight: normal; font-size: 13px;&quot;&gt;6 single-frame HMMer searches&lt;/font&gt;&lt;/div&gt;" style="label;whiteSpace=wrap;html=1;image=img/clipart/Gear_128x128.png;rounded=1;labelBackgroundColor=none;" vertex="1" parent="DtNA1OOpv918O6FHiLsb-5">
          <mxGeometry x="219" y="151" width="192.5" height="58" as="geometry" />
        </mxCell>
        <mxCell id="JjrdLrowcXQNLenx9GRh-77" style="edgeStyle=orthogonalEdgeStyle;rounded=1;orthogonalLoop=1;jettySize=auto;html=1;exitX=0.5;exitY=1;exitDx=0;exitDy=0;entryX=0.5;entryY=0;entryDx=0;entryDy=0;labelBackgroundColor=none;fontColor=default;strokeWidth=3;" edge="1" parent="DtNA1OOpv918O6FHiLsb-5" source="JjrdLrowcXQNLenx9GRh-70" target="JjrdLrowcXQNLenx9GRh-71">
          <mxGeometry relative="1" as="geometry" />
        </mxCell>
        <mxCell id="JjrdLrowcXQNLenx9GRh-70" value="&lt;div style=&quot;font-size: 16px;&quot;&gt;&lt;font style=&quot;font-size: 20px;&quot;&gt;vsearch&lt;/font&gt;&lt;/div&gt;&lt;div&gt;&lt;font style=&quot;font-weight: normal; font-size: 13px;&quot;&gt;deduplicate&lt;br&gt;&lt;/font&gt;&lt;/div&gt;" style="label;whiteSpace=wrap;html=1;image=img/clipart/Gear_128x128.png;rounded=1;labelBackgroundColor=none;" vertex="1" parent="DtNA1OOpv918O6FHiLsb-5">
          <mxGeometry x="221.87" y="231" width="186.75" height="41" as="geometry" />
        </mxCell>
        <mxCell id="JjrdLrowcXQNLenx9GRh-78" style="edgeStyle=orthogonalEdgeStyle;rounded=1;orthogonalLoop=1;jettySize=auto;html=1;exitX=0.5;exitY=1;exitDx=0;exitDy=0;entryX=0.5;entryY=0;entryDx=0;entryDy=0;labelBackgroundColor=none;fontColor=default;strokeWidth=3;" edge="1" parent="DtNA1OOpv918O6FHiLsb-5" source="JjrdLrowcXQNLenx9GRh-71" target="JjrdLrowcXQNLenx9GRh-72">
          <mxGeometry relative="1" as="geometry" />
        </mxCell>
        <mxCell id="JjrdLrowcXQNLenx9GRh-71" value="&lt;div style=&quot;font-size: 16px;&quot;&gt;&lt;font style=&quot;font-size: 20px;&quot;&gt;Cap3&lt;/font&gt;&lt;/div&gt;&lt;div&gt;&lt;font style=&quot;font-weight: normal; font-size: 13px;&quot;&gt;Generate micro-contigs&lt;br&gt;&lt;/font&gt;&lt;/div&gt;" style="label;whiteSpace=wrap;html=1;image=img/clipart/Gear_128x128.png;rounded=1;labelBackgroundColor=none;" vertex="1" parent="DtNA1OOpv918O6FHiLsb-5">
          <mxGeometry x="219" y="289" width="191.63" height="46" as="geometry" />
        </mxCell>
        <mxCell id="JjrdLrowcXQNLenx9GRh-88" style="edgeStyle=orthogonalEdgeStyle;rounded=1;orthogonalLoop=1;jettySize=auto;html=1;exitX=0.5;exitY=1;exitDx=0;exitDy=0;entryX=0.5;entryY=0;entryDx=0;entryDy=0;labelBackgroundColor=none;fontColor=default;strokeWidth=3;" edge="1" parent="DtNA1OOpv918O6FHiLsb-5" source="JjrdLrowcXQNLenx9GRh-72" target="JjrdLrowcXQNLenx9GRh-73">
          <mxGeometry relative="1" as="geometry" />
        </mxCell>
        <mxCell id="JjrdLrowcXQNLenx9GRh-72" value="&lt;div style=&quot;font-size: 16px;&quot;&gt;&lt;font size=&quot;1&quot;&gt;&lt;b style=&quot;font-size: 20px;&quot;&gt;blastn&lt;/b&gt;&lt;/font&gt;&lt;/div&gt;&lt;div&gt;&lt;font style=&quot;font-weight: normal; font-size: 13px;&quot;&gt;filter against custom contaminant DB&lt;/font&gt;&lt;/div&gt;" style="label;whiteSpace=wrap;html=1;image=img/clipart/Gear_128x128.png;rounded=1;labelBackgroundColor=none;" vertex="1" parent="DtNA1OOpv918O6FHiLsb-5">
          <mxGeometry x="215.82" y="358" width="195.18" height="56" as="geometry" />
        </mxCell>
        <mxCell id="JjrdLrowcXQNLenx9GRh-84" style="edgeStyle=orthogonalEdgeStyle;rounded=1;orthogonalLoop=1;jettySize=auto;html=1;exitX=0.5;exitY=1;exitDx=0;exitDy=0;entryX=0;entryY=0.5;entryDx=0;entryDy=0;labelBackgroundColor=none;fontColor=default;strokeWidth=3;" edge="1" parent="DtNA1OOpv918O6FHiLsb-5" source="JjrdLrowcXQNLenx9GRh-74" target="JjrdLrowcXQNLenx9GRh-73">
          <mxGeometry relative="1" as="geometry" />
        </mxCell>
        <mxCell id="JjrdLrowcXQNLenx9GRh-74" value="&lt;div style=&quot;font-size: 16px;&quot;&gt;&lt;font size=&quot;1&quot;&gt;&lt;b style=&quot;font-size: 20px;&quot;&gt;blastx&lt;/b&gt;&lt;/font&gt;&lt;/div&gt;&lt;div style=&quot;&quot;&gt;&lt;font style=&quot;font-size: 12px; font-weight: normal;&quot;&gt;Filter &lt;/font&gt;&lt;font style=&quot;font-size: 12px; font-weight: normal;&quot;&gt;against non-viral refseq protein&lt;/font&gt;&lt;/div&gt;" style="label;whiteSpace=wrap;html=1;image=img/clipart/Gear_128x128.png;rounded=1;labelBackgroundColor=none;" vertex="1" parent="DtNA1OOpv918O6FHiLsb-5">
          <mxGeometry x="21" y="428" width="181" height="55" as="geometry" />
        </mxCell>
        <mxCell id="JjrdLrowcXQNLenx9GRh-73" value="&lt;div style=&quot;font-size: 16px;&quot;&gt;&lt;font size=&quot;1&quot;&gt;&lt;b style=&quot;font-size: 20px;&quot;&gt;tblastx&lt;/b&gt;&lt;/font&gt;&lt;/div&gt;&lt;div style=&quot;font-size: 13px;&quot;&gt;&lt;font style=&quot;font-size: 13px; font-weight: normal;&quot;&gt;check &lt;/font&gt;&lt;font style=&quot;font-size: 13px; font-weight: normal;&quot;&gt;against viral genome&lt;/font&gt; (taxonomy annotation)&lt;br&gt;&lt;/div&gt;" style="label;whiteSpace=wrap;html=1;image=img/clipart/Gear_128x128.png;rounded=1;labelBackgroundColor=none;" vertex="1" parent="DtNA1OOpv918O6FHiLsb-5">
          <mxGeometry x="215.45" y="481" width="194.55" height="78" as="geometry" />
        </mxCell>
        <mxCell id="JjrdLrowcXQNLenx9GRh-81" style="edgeStyle=orthogonalEdgeStyle;rounded=1;orthogonalLoop=1;jettySize=auto;html=1;exitX=0;exitY=0.5;exitDx=0;exitDy=0;entryX=0.47;entryY=0.091;entryDx=0;entryDy=0;entryPerimeter=0;labelBackgroundColor=none;fontColor=default;strokeWidth=3;" edge="1" parent="DtNA1OOpv918O6FHiLsb-5" source="JjrdLrowcXQNLenx9GRh-72" target="JjrdLrowcXQNLenx9GRh-74">
          <mxGeometry relative="1" as="geometry" />
        </mxCell>
        <mxCell id="JjrdLrowcXQNLenx9GRh-82" value="Optional" style="edgeLabel;html=1;align=center;verticalAlign=middle;resizable=0;points=[];fontSize=15;fontStyle=1;rounded=1;labelBackgroundColor=none;" vertex="1" connectable="0" parent="JjrdLrowcXQNLenx9GRh-81">
          <mxGeometry x="-0.3387" relative="1" as="geometry">
            <mxPoint x="1" y="-10" as="offset" />
          </mxGeometry>
        </mxCell>
        <mxCell id="JjrdLrowcXQNLenx9GRh-91" value="&lt;div align=&quot;left&quot; style=&quot;font-size: 14px;&quot;&gt;&lt;font style=&quot;font-size: 14px;&quot;&gt;&lt;b&gt;Protein Translation of&amp;nbsp;&lt;/b&gt;&lt;/font&gt;&lt;/div&gt;&lt;div style=&quot;font-size: 14px;&quot; align=&quot;left&quot;&gt;&lt;font style=&quot;font-size: 14px;&quot;&gt;&lt;b&gt;FASTA Sequences&amp;nbsp;&lt;/b&gt;&lt;/font&gt;&lt;/div&gt;&lt;div align=&quot;left&quot; style=&quot;font-size: 14px;&quot;&gt;&lt;font style=&quot;font-size: 14px;&quot;&gt;&lt;b&gt;(Six Frames)&lt;/b&gt;&lt;/font&gt;&lt;/div&gt;" style="strokeWidth=2;html=1;shape=mxgraph.flowchart.multi-document;whiteSpace=wrap;align=left;rounded=1;labelBackgroundColor=none;fillColor=#d5e8d4;strokeColor=#82b366;" vertex="1" parent="DtNA1OOpv918O6FHiLsb-5">
          <mxGeometry x="6" y="138" width="176" height="93" as="geometry" />
        </mxCell>
        <mxCell id="JjrdLrowcXQNLenx9GRh-118" value="&lt;font size=&quot;1&quot;&gt;&lt;b style=&quot;font-size: 14px;&quot;&gt;#²&lt;/b&gt;&lt;/font&gt;" style="text;html=1;align=center;verticalAlign=middle;resizable=0;points=[];autosize=1;strokeColor=none;fillColor=none;" vertex="1" parent="DtNA1OOpv918O6FHiLsb-5">
          <mxGeometry x="414" y="288" width="30" height="29" as="geometry" />
        </mxCell>
        <mxCell id="JjrdLrowcXQNLenx9GRh-119" value="&lt;font size=&quot;1&quot;&gt;&lt;b style=&quot;font-size: 14px;&quot;&gt;#¹&lt;/b&gt;&lt;/font&gt;" style="text;html=1;align=center;verticalAlign=middle;resizable=0;points=[];autosize=1;strokeColor=none;fillColor=none;" vertex="1" parent="DtNA1OOpv918O6FHiLsb-5">
          <mxGeometry x="414" y="151" width="30" height="29" as="geometry" />
        </mxCell>
        <mxCell id="JjrdLrowcXQNLenx9GRh-133" value="&lt;font style=&quot;font-size: 29px;&quot;&gt;&lt;b&gt;3&lt;/b&gt;&lt;/font&gt;" style="html=1;whiteSpace=wrap;container=1;recursiveResize=0;collapsible=0;fillColor=#000000;strokeColor=#3700CC;fontColor=#ffffff;" vertex="1" parent="DtNA1OOpv918O6FHiLsb-5">
          <mxGeometry x="10" y="59" width="37" height="33" as="geometry" />
        </mxCell>
        <mxCell id="JjrdLrowcXQNLenx9GRh-27" value="Input" style="swimlane;startSize=33;horizontal=1;containerType=tree;fontSize=16;rounded=1;labelBackgroundColor=none;fillColor=#bac8d3;strokeColor=#23445d;" vertex="1" parent="1">
          <mxGeometry x="6" y="17" width="326" height="236" as="geometry">
            <mxRectangle x="9" y="9" width="75" height="26" as="alternateBounds" />
          </mxGeometry>
        </mxCell>
        <mxCell id="JjrdLrowcXQNLenx9GRh-29" value="&lt;font style=&quot;font-size: 14px;&quot;&gt;&lt;b&gt;List with SRA accessions&lt;/b&gt;&lt;/font&gt;" style="whiteSpace=wrap;html=1;treeFolding=1;treeMoving=1;newEdgeStyle={&quot;edgeStyle&quot;:&quot;elbowEdgeStyle&quot;,&quot;startArrow&quot;:&quot;none&quot;,&quot;endArrow&quot;:&quot;none&quot;};rounded=1;labelBackgroundColor=none;fillColor=#f8cecc;strokeColor=#b85450;" vertex="1" parent="JjrdLrowcXQNLenx9GRh-27">
          <mxGeometry x="164.5" y="63" width="120" height="45" as="geometry" />
        </mxCell>
        <mxCell id="JjrdLrowcXQNLenx9GRh-93" value="&lt;font style=&quot;font-size: 14px;&quot;&gt;&lt;b&gt;local FASTQ&lt;br&gt;&lt;/b&gt;&lt;/font&gt;" style="strokeWidth=2;html=1;shape=mxgraph.flowchart.multi-document;whiteSpace=wrap;align=left;rounded=1;labelBackgroundColor=none;fillColor=#d5e8d4;strokeColor=#82b366;" vertex="1" parent="JjrdLrowcXQNLenx9GRh-27">
          <mxGeometry x="14" y="169" width="117" height="52" as="geometry" />
        </mxCell>
        <mxCell id="JjrdLrowcXQNLenx9GRh-94" value="&lt;b&gt;&lt;font style=&quot;font-size: 14px;&quot;&gt;FASTQ&lt;/font&gt;&lt;/b&gt; " style="strokeWidth=2;html=1;shape=mxgraph.flowchart.multi-document;whiteSpace=wrap;align=left;rounded=1;labelBackgroundColor=none;fillColor=#d5e8d4;strokeColor=#82b366;" vertex="1" parent="JjrdLrowcXQNLenx9GRh-27">
          <mxGeometry x="174" y="169" width="101" height="53" as="geometry" />
        </mxCell>
        <mxCell id="JjrdLrowcXQNLenx9GRh-95" style="edgeStyle=elbowEdgeStyle;rounded=1;orthogonalLoop=1;jettySize=auto;html=1;startArrow=none;endArrow=none;entryX=0.5;entryY=0;entryDx=0;entryDy=0;entryPerimeter=0;labelBackgroundColor=none;fontColor=default;strokeWidth=3;" edge="1" parent="JjrdLrowcXQNLenx9GRh-27" source="JjrdLrowcXQNLenx9GRh-29" target="JjrdLrowcXQNLenx9GRh-94">
          <mxGeometry relative="1" as="geometry" />
        </mxCell>
        <mxCell id="JjrdLrowcXQNLenx9GRh-96" value="&lt;font style=&quot;font-size: 15px;&quot;&gt;&lt;b&gt;Fetch&lt;/b&gt;&lt;/font&gt;" style="edgeLabel;html=1;align=center;verticalAlign=middle;resizable=0;points=[];rounded=1;labelBackgroundColor=none;" vertex="1" connectable="0" parent="JjrdLrowcXQNLenx9GRh-95">
          <mxGeometry x="-0.0569" y="-1" relative="1" as="geometry">
            <mxPoint x="-26" y="-1" as="offset" />
          </mxGeometry>
        </mxCell>
        <mxCell id="JjrdLrowcXQNLenx9GRh-124" value="&lt;b&gt;&lt;font style=&quot;font-size: 29px;&quot;&gt;1&lt;/font&gt;&lt;/b&gt;" style="html=1;whiteSpace=wrap;container=1;recursiveResize=0;collapsible=0;fillColor=#000000;strokeColor=#3700CC;fontColor=#ffffff;" vertex="1" parent="JjrdLrowcXQNLenx9GRh-27">
          <mxGeometry x="5" y="37" width="37" height="33" as="geometry" />
        </mxCell>
        <mxCell id="JjrdLrowcXQNLenx9GRh-54" style="edgeStyle=orthogonalEdgeStyle;rounded=1;orthogonalLoop=1;jettySize=auto;html=1;exitX=0.5;exitY=1;exitDx=0;exitDy=0;labelBackgroundColor=none;fontColor=default;strokeWidth=3;" edge="1" parent="1" source="JjrdLrowcXQNLenx9GRh-45" target="JjrdLrowcXQNLenx9GRh-47">
          <mxGeometry relative="1" as="geometry" />
        </mxCell>
        <mxCell id="JjrdLrowcXQNLenx9GRh-45" value="&lt;div&gt;&lt;font style=&quot;font-size: 20px;&quot;&gt;fastp&lt;/font&gt;&lt;font style=&quot;font-size: 15px;&quot;&gt; &lt;br&gt;&lt;/font&gt;&lt;/div&gt;&lt;div&gt;&lt;font size=&quot;1&quot;&gt;&lt;span style=&quot;font-weight: normal; font-size: 13px;&quot;&gt;Trimming of sequencing adapters and removal of low-quality bases&lt;/span&gt;&lt;/font&gt;&lt;font style=&quot;font-size: 15px;&quot;&gt;  &lt;/font&gt;&lt;/div&gt;" style="label;whiteSpace=wrap;html=1;image=img/clipart/Gear_128x128.png;rounded=1;labelBackgroundColor=none;" vertex="1" parent="1">
          <mxGeometry x="57" y="295" width="208" height="116" as="geometry" />
        </mxCell>
        <mxCell id="JjrdLrowcXQNLenx9GRh-55" style="edgeStyle=orthogonalEdgeStyle;rounded=1;orthogonalLoop=1;jettySize=auto;html=1;exitX=1;exitY=0.5;exitDx=0;exitDy=0;entryX=0;entryY=0.5;entryDx=0;entryDy=0;labelBackgroundColor=none;fontColor=default;strokeWidth=3;" edge="1" parent="1" source="JjrdLrowcXQNLenx9GRh-47" target="JjrdLrowcXQNLenx9GRh-48">
          <mxGeometry relative="1" as="geometry" />
        </mxCell>
        <mxCell id="JjrdLrowcXQNLenx9GRh-47" value="&lt;div style=&quot;font-size: 16px;&quot;&gt;&lt;font style=&quot;font-size: 20px;&quot;&gt;seqtk&lt;/font&gt;&lt;/div&gt;&lt;div&gt;&lt;span style=&quot;font-weight: normal;&quot;&gt;&lt;font style=&quot;font-size: 13px;&quot;&gt;Convert to FASTA&lt;/font&gt;&lt;/span&gt;&lt;br&gt;&lt;/div&gt;" style="label;whiteSpace=wrap;html=1;image=img/clipart/Gear_128x128.png;rounded=1;labelBackgroundColor=none;" vertex="1" parent="1">
          <mxGeometry x="6" y="480" width="129" height="77" as="geometry" />
        </mxCell>
        <mxCell id="JjrdLrowcXQNLenx9GRh-48" value="&lt;div&gt;&lt;font style=&quot;font-size: 20px;&quot;&gt;transeq&lt;/font&gt;&lt;/div&gt;&lt;div&gt;&lt;span style=&quot;font-weight: normal;&quot;&gt;&lt;font style=&quot;font-size: 13px;&quot;&gt;Translate sequences into proteins for all six reading frames&lt;/font&gt;&lt;/span&gt;&lt;/div&gt;&lt;div&gt;&lt;br&gt;&lt;/div&gt;" style="label;whiteSpace=wrap;html=1;image=img/clipart/Gear_128x128.png;rounded=1;labelBackgroundColor=none;" vertex="1" parent="1">
          <mxGeometry x="172" y="459.68" width="157" height="117.63" as="geometry" />
        </mxCell>
        <mxCell id="JjrdLrowcXQNLenx9GRh-49" value="" style="shape=curlyBracket;whiteSpace=wrap;html=1;rounded=1;flipH=1;labelPosition=right;verticalLabelPosition=middle;align=left;verticalAlign=middle;rotation=90;labelBackgroundColor=none;fontStyle=0;strokeWidth=3;" vertex="1" parent="1">
          <mxGeometry x="149" y="147" width="23" height="264" as="geometry" />
        </mxCell>
        <mxCell id="JjrdLrowcXQNLenx9GRh-62" style="edgeStyle=orthogonalEdgeStyle;rounded=1;orthogonalLoop=1;jettySize=auto;html=1;exitX=1;exitY=0.5;exitDx=0;exitDy=0;entryX=0.464;entryY=0.988;entryDx=0;entryDy=0;entryPerimeter=0;labelBackgroundColor=none;fontColor=default;strokeWidth=3;" edge="1" parent="1" source="JjrdLrowcXQNLenx9GRh-48">
          <mxGeometry relative="1" as="geometry">
            <mxPoint x="429.0239999999999" y="395.9680000000001" as="targetPoint" />
          </mxGeometry>
        </mxCell>
        <mxCell id="JjrdLrowcXQNLenx9GRh-100" style="edgeStyle=orthogonalEdgeStyle;rounded=1;orthogonalLoop=1;jettySize=auto;html=1;exitX=0.5;exitY=1;exitDx=0;exitDy=0;entryX=0.445;entryY=0.025;entryDx=0;entryDy=0;entryPerimeter=0;labelBackgroundColor=none;fontColor=default;strokeWidth=3;" edge="1" parent="1" source="JjrdLrowcXQNLenx9GRh-47" target="JjrdLrowcXQNLenx9GRh-92">
          <mxGeometry relative="1" as="geometry">
            <mxPoint x="72" y="939" as="targetPoint" />
          </mxGeometry>
        </mxCell>
        <mxCell id="JjrdLrowcXQNLenx9GRh-102" style="edgeStyle=orthogonalEdgeStyle;rounded=1;orthogonalLoop=1;jettySize=auto;html=1;entryX=0.452;entryY=0.131;entryDx=0;entryDy=0;entryPerimeter=0;exitX=0.45;exitY=1;exitDx=0;exitDy=0;exitPerimeter=0;labelBackgroundColor=none;fontColor=default;strokeWidth=3;" edge="1" parent="1" source="JjrdLrowcXQNLenx9GRh-73" target="JjrdLrowcXQNLenx9GRh-99">
          <mxGeometry relative="1" as="geometry">
            <mxPoint x="643" y="755" as="sourcePoint" />
            <mxPoint x="270" y="860" as="targetPoint" />
            <Array as="points">
              <mxPoint x="643" y="764" />
              <mxPoint x="281" y="764" />
              <mxPoint x="281" y="876" />
            </Array>
          </mxGeometry>
        </mxCell>
        <mxCell id="JjrdLrowcXQNLenx9GRh-114" style="edgeStyle=orthogonalEdgeStyle;rounded=0;orthogonalLoop=1;jettySize=auto;html=1;exitX=1;exitY=0.5;exitDx=0;exitDy=0;entryX=0;entryY=0.5;entryDx=0;entryDy=0;fontColor=default;labelBackgroundColor=none;strokeWidth=3;" edge="1" parent="1" source="5gK6zpaWBkJ-7K4iz9fj-62" target="JjrdLrowcXQNLenx9GRh-112">
          <mxGeometry relative="1" as="geometry" />
        </mxCell>
        <mxCell id="5gK6zpaWBkJ-7K4iz9fj-62" value="&lt;font style=&quot;font-size: 17px;&quot;&gt;VirusGatherer&lt;/font&gt;" style="swimlane;whiteSpace=wrap;html=1;startSize=46;rounded=1;labelBackgroundColor=none;fillColor=#d0cee2;strokeColor=#56517e;" parent="1" vertex="1">
          <mxGeometry y="807" width="613" height="230" as="geometry" />
        </mxCell>
        <mxCell id="JjrdLrowcXQNLenx9GRh-103" style="edgeStyle=orthogonalEdgeStyle;rounded=1;orthogonalLoop=1;jettySize=auto;html=1;exitX=1;exitY=0.5;exitDx=0;exitDy=0;exitPerimeter=0;entryX=0;entryY=0.5;entryDx=0;entryDy=0;labelBackgroundColor=none;fontColor=default;strokeWidth=3;" edge="1" parent="5gK6zpaWBkJ-7K4iz9fj-62" source="JjrdLrowcXQNLenx9GRh-92" target="JjrdLrowcXQNLenx9GRh-97">
          <mxGeometry relative="1" as="geometry" />
        </mxCell>
        <mxCell id="JjrdLrowcXQNLenx9GRh-92" value="&lt;div align=&quot;left&quot; style=&quot;font-size: 14px;&quot;&gt;&lt;font style=&quot;font-size: 14px;&quot;&gt;&lt;b&gt;FASTA Sequences &lt;br&gt;&lt;/b&gt;&lt;/font&gt;&lt;/div&gt;" style="strokeWidth=2;html=1;shape=mxgraph.flowchart.multi-document;whiteSpace=wrap;align=left;rounded=1;labelBackgroundColor=none;fillColor=#d5e8d4;strokeColor=#82b366;" vertex="1" parent="5gK6zpaWBkJ-7K4iz9fj-62">
          <mxGeometry x="5" y="149.5" width="146" height="61" as="geometry" />
        </mxCell>
        <mxCell id="JjrdLrowcXQNLenx9GRh-97" value="&lt;div&gt;&lt;font style=&quot;font-size: 20px;&quot;&gt;genseed-hmm&lt;/font&gt;&lt;/div&gt;&lt;div style=&quot;font-size: 13px;&quot;&gt;&lt;font style=&quot;font-size: 13px;&quot;&gt;&lt;span style=&quot;font-weight: normal;&quot;&gt;Iterative assembly&lt;/span&gt;&lt;br&gt;&lt;/font&gt;&lt;/div&gt;" style="label;whiteSpace=wrap;html=1;image=img/clipart/Gear_128x128.png;rounded=1;labelBackgroundColor=none;" vertex="1" parent="5gK6zpaWBkJ-7K4iz9fj-62">
          <mxGeometry x="180.5" y="153" width="198" height="54" as="geometry" />
        </mxCell>
        <mxCell id="JjrdLrowcXQNLenx9GRh-98" value="&lt;div style=&quot;font-size: 16px;&quot;&gt;&lt;font size=&quot;1&quot;&gt;&lt;b style=&quot;font-size: 20px;&quot;&gt;blastx&lt;/b&gt;&lt;/font&gt;&lt;/div&gt;&lt;div style=&quot;font-size: 13px;&quot;&gt;&lt;font style=&quot;font-size: 13px; font-weight: normal;&quot;&gt;check &lt;/font&gt;&lt;font style=&quot;font-size: 13px; font-weight: normal;&quot;&gt;against viral genome&lt;/font&gt; (taxonomy annotation)&lt;br&gt;&lt;/div&gt;" style="label;whiteSpace=wrap;html=1;image=img/clipart/Gear_128x128.png;rounded=1;labelBackgroundColor=none;" vertex="1" parent="5gK6zpaWBkJ-7K4iz9fj-62">
          <mxGeometry x="423" y="137" width="172.55" height="70" as="geometry" />
        </mxCell>
        <mxCell id="JjrdLrowcXQNLenx9GRh-104" style="edgeStyle=orthogonalEdgeStyle;rounded=1;orthogonalLoop=1;jettySize=auto;html=1;exitX=0.5;exitY=0.88;exitDx=0;exitDy=0;exitPerimeter=0;labelBackgroundColor=none;fontColor=default;strokeWidth=3;" edge="1" parent="5gK6zpaWBkJ-7K4iz9fj-62" source="JjrdLrowcXQNLenx9GRh-99" target="JjrdLrowcXQNLenx9GRh-97">
          <mxGeometry relative="1" as="geometry" />
        </mxCell>
        <mxCell id="JjrdLrowcXQNLenx9GRh-99" value="&lt;font style=&quot;font-size: 14px;&quot;&gt;&lt;b&gt;Filtered Contigs from Hunter&lt;/b&gt;&lt;/font&gt;" style="strokeWidth=2;html=1;shape=mxgraph.flowchart.multi-document;whiteSpace=wrap;align=left;rounded=1;labelBackgroundColor=none;fillColor=#d5e8d4;strokeColor=#82b366;" vertex="1" parent="5gK6zpaWBkJ-7K4iz9fj-62">
          <mxGeometry x="191" y="61" width="177" height="61" as="geometry" />
        </mxCell>
        <mxCell id="JjrdLrowcXQNLenx9GRh-105" style="edgeStyle=orthogonalEdgeStyle;rounded=1;orthogonalLoop=1;jettySize=auto;html=1;exitX=1;exitY=0.5;exitDx=0;exitDy=0;entryX=0.006;entryY=0.621;entryDx=0;entryDy=0;entryPerimeter=0;labelBackgroundColor=none;fontColor=default;strokeWidth=3;" edge="1" parent="5gK6zpaWBkJ-7K4iz9fj-62" source="JjrdLrowcXQNLenx9GRh-97" target="JjrdLrowcXQNLenx9GRh-98">
          <mxGeometry relative="1" as="geometry" />
        </mxCell>
        <mxCell id="JjrdLrowcXQNLenx9GRh-134" value="&lt;b&gt;&lt;font style=&quot;font-size: 29px;&quot;&gt;4&lt;/font&gt;&lt;/b&gt;" style="html=1;whiteSpace=wrap;container=1;recursiveResize=0;collapsible=0;fillColor=#000000;strokeColor=#3700CC;fontColor=#ffffff;" vertex="1" parent="5gK6zpaWBkJ-7K4iz9fj-62">
          <mxGeometry x="9" y="56" width="37" height="33" as="geometry" />
        </mxCell>
        <mxCell id="JjrdLrowcXQNLenx9GRh-112" value="&lt;b&gt;&lt;font style=&quot;font-size: 17px;&quot;&gt;Output&lt;/font&gt;&lt;/b&gt;" style="swimlane;childLayout=stackLayout;horizontal=1;startSize=50;horizontalStack=0;rounded=1;fontSize=14;fontStyle=0;strokeWidth=2;resizeParent=0;resizeLast=1;shadow=0;dashed=0;align=center;arcSize=4;whiteSpace=wrap;html=1;labelBackgroundColor=none;fillColor=#ffff88;strokeColor=#36393d;" vertex="1" parent="1">
          <mxGeometry x="648" y="815.5" width="184" height="213" as="geometry" />
        </mxCell>
        <mxCell id="JjrdLrowcXQNLenx9GRh-113" value="&lt;div style=&quot;font-size: 14px;&quot;&gt;&lt;b&gt;&lt;font style=&quot;font-size: 14px;&quot;&gt;+ Filtered contigs&amp;nbsp;&lt;/font&gt;&lt;/b&gt;&lt;/div&gt;&lt;div style=&quot;font-size: 14px;&quot;&gt;&lt;b&gt;&lt;font style=&quot;font-size: 14px;&quot;&gt;&amp;nbsp;&amp;nbsp; from VirusHunter&lt;/font&gt;&lt;/b&gt;&lt;/div&gt;&lt;div style=&quot;font-size: 14px;&quot;&gt;&lt;b&gt;&lt;font style=&quot;font-size: 14px;&quot;&gt;&lt;br&gt;&lt;/font&gt;&lt;/b&gt;&lt;/div&gt;&lt;div style=&quot;font-size: 14px;&quot;&gt;&lt;b&gt;&lt;font style=&quot;font-size: 14px;&quot;&gt;+ VirusHunter hittable&lt;/font&gt;&lt;/b&gt;&lt;/div&gt;&lt;div style=&quot;font-size: 14px;&quot;&gt;&lt;b&gt;&lt;font style=&quot;font-size: 14px;&quot;&gt;&lt;br&gt;&lt;/font&gt;&lt;/b&gt;&lt;/div&gt;&lt;div style=&quot;font-size: 14px;&quot;&gt;&lt;b&gt;&lt;font style=&quot;font-size: 14px;&quot;&gt;+ Contigs from&amp;nbsp;&lt;/font&gt;&lt;/b&gt;&lt;/div&gt;&lt;div style=&quot;font-size: 14px;&quot;&gt;&lt;b&gt;&lt;font style=&quot;font-size: 14px;&quot;&gt;&amp;nbsp;&amp;nbsp; VirusGatherer&lt;/font&gt;&lt;/b&gt;&lt;/div&gt;&lt;div style=&quot;font-size: 14px;&quot;&gt;&lt;b&gt;&lt;font style=&quot;font-size: 14px;&quot;&gt;&lt;br&gt;&lt;/font&gt;&lt;/b&gt;&lt;/div&gt;&lt;div style=&quot;font-size: 14px;&quot;&gt;&lt;b&gt;&lt;font style=&quot;font-size: 14px;&quot;&gt;+ VirusGatherer hittable&lt;br&gt;&lt;/font&gt;&lt;/b&gt;&lt;/div&gt;&lt;div style=&quot;font-size: 14px;&quot;&gt;&lt;b&gt;&lt;font style=&quot;font-size: 14px;&quot;&gt;&lt;br&gt;&lt;/font&gt;&lt;/b&gt;&lt;/div&gt;&lt;div style=&quot;font-size: 14px;&quot;&gt;&lt;b&gt;&lt;font style=&quot;font-size: 14px;&quot;&gt;&lt;br&gt;&lt;/font&gt;&lt;/b&gt;&lt;/div&gt;" style="align=left;strokeColor=none;fillColor=none;spacingLeft=4;fontSize=12;verticalAlign=top;resizable=0;rotatable=0;part=1;html=1;labelBackgroundColor=none;" vertex="1" parent="JjrdLrowcXQNLenx9GRh-112">
          <mxGeometry y="50" width="184" height="163" as="geometry" />
        </mxCell>
        <mxCell id="JjrdLrowcXQNLenx9GRh-115" style="edgeStyle=orthogonalEdgeStyle;rounded=0;orthogonalLoop=1;jettySize=auto;html=1;exitX=0.75;exitY=1;exitDx=0;exitDy=0;entryX=0.402;entryY=-0.002;entryDx=0;entryDy=0;entryPerimeter=0;fontColor=default;labelBackgroundColor=none;strokeWidth=3;" edge="1" parent="1" source="DtNA1OOpv918O6FHiLsb-5" target="JjrdLrowcXQNLenx9GRh-112">
          <mxGeometry relative="1" as="geometry" />
        </mxCell>
        <mxCell id="JjrdLrowcXQNLenx9GRh-117" value="&lt;div align=&quot;left&quot;&gt;&lt;b&gt;#¹ &amp;gt; Only HMM-positive reads are used in the subsequent pipeline steps following the HMM profile search.&lt;/b&gt;&lt;/div&gt;&lt;div align=&quot;left&quot;&gt;&lt;b&gt;#² &amp;gt; Micro-contigs generated from Cap3 assembly are used in the filtering step.&lt;/b&gt;&lt;/div&gt;" style="text;html=1;align=left;verticalAlign=middle;resizable=0;points=[];autosize=1;strokeColor=none;fillColor=none;" vertex="1" parent="1">
          <mxGeometry x="13" y="1052" width="622" height="41" as="geometry" />
        </mxCell>
        <mxCell id="JjrdLrowcXQNLenx9GRh-120" value="&lt;h1 align=&quot;center&quot; style=&quot;font-size: 47px;&quot;&gt;&lt;i&gt;&lt;font style=&quot;font-size: 19px;&quot;&gt;&lt;u&gt;The VirusHunter and VirusGatherer Pipeline&lt;/u&gt;&lt;/font&gt;&lt;/i&gt;&lt;/h1&gt;" style="text;strokeColor=none;fillColor=none;html=1;fontSize=24;fontStyle=1;verticalAlign=middle;align=center;" vertex="1" parent="1">
          <mxGeometry x="548" y="67" width="87" height="56" as="geometry" />
        </mxCell>
        <mxCell id="JjrdLrowcXQNLenx9GRh-121" value="" style="shape=curlyBracket;whiteSpace=wrap;html=1;rounded=1;labelPosition=left;verticalLabelPosition=middle;align=right;verticalAlign=middle;strokeWidth=3;" vertex="1" parent="1">
          <mxGeometry x="368" y="40" width="20" height="120" as="geometry" />
        </mxCell>
        <mxCell id="JjrdLrowcXQNLenx9GRh-122" value="" style="shape=curlyBracket;whiteSpace=wrap;html=1;rounded=1;flipH=1;labelPosition=right;verticalLabelPosition=middle;align=left;verticalAlign=middle;strokeWidth=3;" vertex="1" parent="1">
          <mxGeometry x="792" y="35" width="20" height="120" as="geometry" />
        </mxCell>
        <mxCell id="JjrdLrowcXQNLenx9GRh-132" value="&lt;font style=&quot;font-size: 29px;&quot;&gt;&lt;b&gt;2&lt;/b&gt;&lt;/font&gt;" style="html=1;whiteSpace=wrap;container=1;recursiveResize=0;collapsible=0;fillColor=#000000;strokeColor=#3700CC;fontColor=#ffffff;" vertex="1" parent="1">
          <mxGeometry x="15" y="416" width="37" height="33" as="geometry" />
        </mxCell>
        <mxCell id="JjrdLrowcXQNLenx9GRh-135" value="&lt;b&gt;&lt;font style=&quot;font-size: 29px;&quot;&gt;5&lt;/font&gt;&lt;/b&gt;" style="html=1;whiteSpace=wrap;container=1;recursiveResize=0;collapsible=0;fillColor=#000000;strokeColor=#3700CC;fontColor=#ffffff;" vertex="1" parent="1">
          <mxGeometry x="622" y="777" width="37" height="33" as="geometry" />
        </mxCell>
      </root>
    </mxGraphModel>
  </diagram>
</mxfile>
